<svg width="3439" height="913" viewBox="0 0 3439 913" fill="none" xmlns="http://www.w3.org/2000/svg">
<path d="M752.743 0H159.673C71.4879 0 0 71.4879 0 159.673V752.743C0 840.927 71.4879 912.415 159.673 912.415H752.743C840.927 912.415 912.415 840.927 912.415 752.743V159.673C912.415 71.4879 840.927 0 752.743 0Z" fill="#015EEB"/>
<path d="M99.5361 257.135H239.509L319.345 509.086L385.703 315.198L526.712 313.124L597.217 515.307L671.869 257.135L817.026 257.135L671.869 705.048H526.712L456.208 509.086L385.703 705.048H239.509L99.5361 257.135Z" fill="white"/>
<path d="M1302.26 638.69L1177.84 211.19H1274.79L1356.18 509.799L1448.17 211.19H1550.81L1642.35 509.799L1729.44 211.19H1816.34L1712.53 638.69H1582.89L1497.74 319.086L1412.88 638.69H1302.26Z" fill="#080808"/>
<path d="M1911.92 265.43C1886.73 265.43 1866.3 245.005 1866.3 219.809C1866.3 194.614 1886.73 174.188 1911.92 174.188H1920.22C1945.41 174.188 1965.84 194.614 1965.84 219.809C1965.84 245.005 1945.41 265.43 1920.22 265.43H1911.92ZM1874.6 638.69V329H1956.54V638.69H1874.6Z" fill="#080808"/>
<path d="M1277.95 207.043L1278.79 210.1L1356.42 494.921L1444.2 209.969L1445.11 207.043H1553.88L1554.78 209.975L1642.25 495.324L1725.46 210.028L1726.33 207.043H1821.62L1820.37 212.169L1716.56 639.669L1715.79 642.838H1579.7L1578.88 639.758L1497.75 335.22L1416.89 639.755L1416.07 642.838H1299.15L1298.28 639.85L1173.86 212.349L1172.32 207.043H1277.95ZM1960.69 324.854V642.838H1870.45V324.854H1960.69ZM1920.22 170.041C1947.7 170.041 1969.99 192.323 1969.99 219.81C1969.99 247.296 1947.7 269.577 1920.22 269.577H1911.92C1884.44 269.577 1862.16 247.296 1862.16 219.81C1862.16 192.324 1884.44 170.041 1911.92 170.041H1920.22Z" stroke="#080808" stroke-width="8.29468"/>
<path d="M2486.04 631.676H2392.14L2355.69 544.485H2183.93L2148.65 631.676H2057.08L2223.59 204.176H2314.86L2486.04 631.676ZM2327.11 462.542L2268.21 303.906L2210.47 462.542H2327.11Z" fill="#015EEB"/>
<path d="M2735.59 631.676V585.31C2724.32 601.835 2709.45 614.86 2690.98 624.386C2672.7 633.912 2641.11 638.675 2620.7 638.675C2599.9 638.675 2581.23 634.106 2564.71 624.969C2548.18 615.832 2536.23 603.001 2528.84 586.476C2521.45 569.952 2517.76 547.109 2517.76 517.948V321.986H2599.7V464.292C2599.7 507.839 2601.16 534.57 2604.08 544.485C2607.19 554.205 2612.73 561.981 2620.7 567.813C2628.67 573.451 2651.03 576.27 2663.27 576.27C2677.27 576.27 2689.81 572.479 2700.89 564.897C2711.97 557.121 2719.55 547.595 2723.64 536.32C2727.72 524.85 2729.76 496.952 2729.76 452.628V321.986H2811.9V631.676H2735.59Z" fill="#015EEB"/>
<path d="M3069.03 321.986V387.307L2998.11 387.307V512.116C2998.11 537.389 2998.59 552.164 2999.56 556.441C3000.73 560.523 3003.16 563.925 3006.85 566.647C3010.74 569.369 3015.41 570.73 3020.85 570.73C3028.43 570.73 3056.59 570.73 3073.18 570.73V631.677C3054.13 639.355 3020.17 638.675 2996.07 638.675C2981.29 638.675 2967.97 636.245 2956.11 631.384C2944.26 626.33 2935.51 619.914 2929.87 612.138C2924.43 604.167 2920.64 593.475 2918.5 580.061C2916.75 570.535 2915.87 551.289 2915.87 522.322V387.307H2861.67V321.986H2915.87V225.237H2996.07L2998.11 321.986H3069.03Z" fill="#015EEB"/>
<path d="M3110.51 472.457C3110.51 445.24 3117.21 418.898 3130.63 393.431C3144.04 367.963 3163 348.523 3187.49 335.109C3212.18 321.695 3239.69 314.988 3270.02 314.988C3316.87 314.988 3355.26 330.249 3385.2 360.77C3415.14 391.098 3430.11 429.493 3430.11 475.956C3430.11 522.808 3414.95 561.69 3384.62 592.6C3354.49 623.317 3316.48 638.675 3270.6 638.675C3242.22 638.675 3215.1 632.259 3189.24 619.428C3163.58 606.598 3144.04 587.837 3130.63 563.148C3117.21 538.264 3110.51 508.033 3110.51 472.457ZM3194.49 476.831C3194.49 507.547 3201.78 531.071 3216.36 547.401C3230.94 563.731 3248.92 571.896 3270.31 571.896C3291.69 571.896 3309.58 563.731 3323.96 547.401C3338.54 531.071 3345.84 507.353 3345.84 476.248C3345.84 445.92 3338.54 422.592 3323.96 406.262C3309.58 389.931 3291.69 381.766 3270.31 381.766C3248.92 381.766 3230.94 389.931 3216.36 406.262C3201.78 422.592 3194.49 446.115 3194.49 476.831Z" fill="#015EEB"/>
<path d="M3000.13 221.09L3000.21 225.149L3002.17 317.839H3073.18V391.455H3069.03L3002.25 391.454V512.116C3002.25 524.734 3002.38 534.694 3002.62 542.016C3002.86 549.328 3003.21 553.638 3003.58 555.398C3004.48 558.467 3006.31 561.078 3009.27 563.271C3012.35 565.421 3016.15 566.582 3020.85 566.582H3077.33V634.477L3074.73 635.523C3064.54 639.632 3050.7 641.402 3036.75 642.195C3022.72 642.994 3008.05 642.822 2996.07 642.822C2980.83 642.822 2966.97 640.315 2954.54 635.222L2954.51 635.211L2954.49 635.199C2942.17 629.947 2932.72 623.131 2926.51 614.572L2926.48 614.525L2926.45 614.478C2920.55 605.839 2916.6 594.502 2914.4 580.714H2914.4C2912.58 570.725 2911.73 551.132 2911.73 522.322V391.454H2857.52V317.839H2911.73V221.09H3000.13ZM2603.85 317.839V464.292C2603.85 486.03 2604.21 503.516 2604.94 516.774C2605.67 530.132 2606.75 538.83 2608.04 543.277C2610.9 552.149 2615.91 559.156 2623.11 564.438C2624.58 565.472 2626.98 566.547 2630.22 567.552C2633.41 568.541 2637.15 569.385 2641.09 570.069C2648.99 571.441 2657.4 572.123 2663.27 572.123C2676.47 572.123 2688.19 568.564 2698.55 561.475C2709 554.128 2715.99 545.267 2719.74 534.907C2721.57 529.743 2723.08 520.403 2724.09 506.491C2725.1 492.684 2725.61 474.74 2725.61 452.628V317.839H2816.04V635.823H2731.45V597.622C2720.94 610.082 2708.07 620.23 2692.89 628.062C2683.23 633.097 2670.31 636.764 2657.4 639.179C2644.44 641.602 2631.19 642.822 2620.7 642.822C2599.27 642.822 2579.9 638.109 2562.7 628.599C2545.43 619.046 2532.83 605.552 2525.05 588.169C2517.33 570.885 2513.61 547.377 2513.61 517.948V317.839H2603.85ZM3270.02 310.84C3317.86 310.84 3357.36 326.466 3388.15 357.856C3418.93 389.034 3434.26 428.511 3434.26 475.956C3434.26 523.796 3418.73 563.752 3387.58 595.505C3356.61 627.073 3317.51 642.822 3270.6 642.822C3241.57 642.822 3213.82 636.254 3187.4 623.144L3187.39 623.138C3160.98 609.936 3140.81 590.58 3126.98 565.128L3126.98 565.115C3113.16 539.49 3106.36 508.546 3106.36 472.457C3106.36 444.528 3113.25 417.526 3126.96 391.498C3140.74 365.334 3160.27 345.289 3185.5 331.471L3185.51 331.465C3210.86 317.695 3239.05 310.84 3270.02 310.84ZM2317.67 200.028L2318.71 202.634L2489.89 630.135L2492.17 635.823H2389.38L2388.31 633.275L2352.93 548.632H2186.73L2152.49 633.231L2151.44 635.823H2051.01L2053.22 630.171L2219.73 202.671L2220.75 200.028H2317.67ZM3270.31 385.914C3250.14 385.914 3233.27 393.551 3219.45 409.023C3205.78 424.335 3198.64 446.724 3198.64 476.831C3198.64 506.938 3205.78 529.327 3219.45 544.639C3233.27 560.111 3250.14 567.749 3270.31 567.749C3290.48 567.749 3307.24 560.114 3320.85 544.659L3320.86 544.648L3320.87 544.639C3334.53 529.335 3341.69 506.76 3341.69 476.248C3341.69 446.546 3334.55 424.344 3320.87 409.023L3320.86 409.014L3320.85 409.003C3307.24 393.548 3290.48 385.914 3270.31 385.914ZM2216.39 458.395H2321.15L2268.25 315.925L2216.39 458.395Z" stroke="#015EEB" stroke-width="8.29468"/>
<path d="M1319.13 805.484L1329.87 808.196C1327.62 817.015 1323.56 823.748 1317.7 828.397C1311.87 833.01 1304.73 835.316 1296.28 835.316C1287.53 835.316 1280.41 833.545 1274.91 830.003C1269.45 826.423 1265.28 821.258 1262.4 814.505C1259.56 807.753 1258.14 800.503 1258.14 792.754C1258.14 784.305 1259.75 776.944 1262.96 770.671C1266.2 764.361 1270.8 759.583 1276.74 756.336C1282.72 753.052 1289.28 751.41 1296.44 751.41C1304.56 751.41 1311.39 753.477 1316.92 757.609C1322.46 761.742 1326.31 767.553 1328.49 775.043L1317.92 777.534C1316.03 771.63 1313.3 767.332 1309.73 764.638C1306.15 761.945 1301.64 760.598 1296.22 760.598C1289.99 760.598 1284.76 762.092 1280.56 765.081C1276.39 768.07 1273.45 772.092 1271.76 777.147C1270.06 782.165 1269.21 787.349 1269.21 792.699C1269.21 799.599 1270.21 805.632 1272.2 810.797C1274.23 815.926 1277.37 819.763 1281.61 822.309C1285.85 824.855 1290.45 826.128 1295.39 826.128C1301.41 826.128 1306.5 824.394 1310.67 820.926C1314.84 817.457 1317.66 812.31 1319.13 805.484ZM1364.83 794.415C1364.83 780.947 1368.44 770.413 1375.67 762.812C1382.91 755.174 1392.24 751.355 1403.68 751.355C1411.17 751.355 1417.92 753.145 1423.94 756.724C1429.95 760.303 1434.53 765.302 1437.66 771.723C1440.84 778.106 1442.42 785.356 1442.42 793.474C1442.42 801.702 1440.76 809.063 1437.44 815.557C1434.12 822.051 1429.42 826.977 1423.33 830.335C1417.24 833.655 1410.67 835.316 1403.62 835.316C1395.99 835.316 1389.16 833.471 1383.15 829.781C1377.13 826.091 1372.57 821.055 1369.48 814.672C1366.38 808.288 1364.83 801.536 1364.83 794.415ZM1375.9 794.581C1375.9 804.359 1378.52 812.07 1383.75 817.716C1389.03 823.324 1395.64 826.128 1403.57 826.128C1411.65 826.128 1418.29 823.287 1423.49 817.605C1428.73 811.923 1431.35 803.86 1431.35 793.418C1431.35 786.814 1430.23 781.058 1427.98 776.15C1425.76 771.206 1422.5 767.387 1418.18 764.694C1413.9 761.963 1409.09 760.598 1403.73 760.598C1396.13 760.598 1389.58 763.218 1384.09 768.457C1378.63 773.66 1375.9 782.368 1375.9 794.581ZM1480.92 833.932V752.794H1497.08L1516.29 810.244C1518.06 815.594 1519.35 819.597 1520.16 822.254C1521.08 819.302 1522.52 814.967 1524.48 809.248L1543.9 752.794H1558.35V833.932H1548V766.022L1524.42 833.932H1514.74L1491.27 764.86V833.932H1480.92ZM1600.61 833.932V752.794H1631.22C1636.6 752.794 1640.72 753.052 1643.56 753.569C1647.54 754.233 1650.88 755.506 1653.58 757.388C1656.27 759.233 1658.43 761.834 1660.05 765.192C1661.71 768.549 1662.54 772.239 1662.54 776.261C1662.54 783.161 1660.35 789.009 1655.96 793.806C1651.57 798.566 1643.63 800.946 1632.16 800.946H1611.35V833.932H1600.61ZM1611.35 791.371H1632.32C1639.26 791.371 1644.19 790.079 1647.1 787.496C1650.02 784.914 1651.47 781.279 1651.47 776.593C1651.47 773.198 1650.61 770.302 1648.87 767.904C1647.17 765.468 1644.92 763.863 1642.12 763.088C1640.31 762.609 1636.97 762.369 1632.1 762.369H1611.35V791.371ZM1701.32 833.932V752.794H1737.29C1744.52 752.794 1750.02 753.532 1753.78 755.008C1757.55 756.447 1760.56 759.011 1762.81 762.701C1765.06 766.391 1766.18 770.468 1766.18 774.933C1766.18 780.689 1764.32 785.541 1760.59 789.489C1756.87 793.437 1751.11 795.946 1743.32 797.016C1746.17 798.381 1748.32 799.728 1749.8 801.056C1752.94 803.934 1755.91 807.532 1758.71 811.849L1772.82 833.932H1759.32L1748.58 817.051C1745.45 812.181 1742.86 808.454 1740.83 805.871C1738.8 803.289 1736.98 801.481 1735.35 800.447C1733.77 799.414 1732.14 798.695 1730.48 798.289C1729.27 798.031 1727.27 797.902 1724.51 797.902H1712.05V833.932H1701.32ZM1712.05 788.603H1735.13C1740.04 788.603 1743.88 788.105 1746.64 787.109C1749.41 786.076 1751.52 784.452 1752.95 782.238C1754.39 779.988 1755.11 777.552 1755.11 774.933C1755.11 771.095 1753.71 767.941 1750.91 765.468C1748.14 762.996 1743.75 761.76 1737.73 761.76H1712.05V788.603ZM1799.09 833.932L1830.25 752.794H1841.82L1875.02 833.932H1862.79L1853.33 809.358H1819.4L1810.49 833.932H1799.09ZM1822.5 800.613H1850.01L1841.54 778.143C1838.96 771.317 1837.04 765.708 1835.78 761.317C1834.75 766.52 1833.29 771.686 1831.41 776.814L1822.5 800.613ZM1910.09 833.932V822.586H1921.44V833.932H1910.09ZM2044.7 833.932L2013.26 752.794H2024.89L2045.97 811.738C2047.67 816.461 2049.09 820.889 2050.23 825.021C2051.49 820.594 2052.95 816.166 2054.61 811.738L2076.52 752.794H2087.48L2055.71 833.932H2044.7ZM2122.27 833.932V752.794H2180.94V762.369H2133.01V787.22H2177.89V796.739H2133.01V824.357H2182.82V833.932H2122.27ZM2222.48 833.932V752.794H2233.49L2276.11 816.498V752.794H2286.4V833.932H2275.39L2232.77 770.173V833.932H2222.48ZM2329.44 833.932V752.794H2357.39C2363.7 752.794 2368.51 753.181 2371.84 753.956C2376.48 755.026 2380.45 756.963 2383.73 759.768C2388.01 763.384 2391.21 768.014 2393.31 773.66C2395.45 779.268 2396.52 785.688 2396.52 792.92C2396.52 799.082 2395.8 804.543 2394.36 809.303C2392.92 814.063 2391.08 818.011 2388.83 821.147C2386.58 824.246 2384.1 826.7 2381.41 828.508C2378.75 830.279 2375.53 831.626 2371.72 832.548C2367.96 833.471 2363.63 833.932 2358.72 833.932H2329.44ZM2340.18 824.357H2357.5C2362.85 824.357 2367.04 823.859 2370.06 822.863C2373.13 821.867 2375.56 820.464 2377.37 818.656C2379.92 816.111 2381.89 812.697 2383.29 808.417C2384.73 804.1 2385.45 798.879 2385.45 792.754C2385.45 784.268 2384.05 777.755 2381.24 773.217C2378.48 768.642 2375.1 765.579 2371.12 764.029C2368.24 762.922 2363.61 762.369 2357.22 762.369H2340.18V824.357ZM2436.51 833.932V752.794H2495.18V762.369H2447.25V787.22H2492.13V796.739H2447.25V824.357H2497.06V833.932H2436.51ZM2538.38 833.932V822.586H2549.73V833.932H2538.38ZM2707.69 805.484L2718.43 808.196C2716.18 817.015 2712.12 823.748 2706.25 828.397C2700.42 833.01 2693.28 835.316 2684.83 835.316C2676.09 835.316 2668.97 833.545 2663.47 830.003C2658.01 826.423 2653.84 821.258 2650.96 814.505C2648.12 807.753 2646.7 800.503 2646.7 792.754C2646.7 784.305 2648.3 776.944 2651.51 770.671C2654.76 764.361 2659.36 759.583 2665.3 756.336C2671.27 753.052 2677.84 751.41 2685 751.41C2693.12 751.41 2699.94 753.477 2705.48 757.609C2711.01 761.742 2714.87 767.553 2717.05 775.043L2706.47 777.534C2704.59 771.63 2701.86 767.332 2698.28 764.638C2694.7 761.945 2690.2 760.598 2684.78 760.598C2678.54 760.598 2673.32 762.092 2669.12 765.081C2664.95 768.07 2662.01 772.092 2660.32 777.147C2658.62 782.165 2657.77 787.349 2657.77 792.699C2657.77 799.599 2658.77 805.632 2660.76 810.797C2662.79 815.926 2665.92 819.763 2670.17 822.309C2674.41 824.855 2679 826.128 2683.95 826.128C2689.96 826.128 2695.05 824.394 2699.22 820.926C2703.39 817.457 2706.22 812.31 2707.69 805.484ZM2753.38 794.415C2753.38 780.947 2757 770.413 2764.23 762.812C2771.46 755.174 2780.8 751.355 2792.24 751.355C2799.73 751.355 2806.48 753.145 2812.49 756.724C2818.51 760.303 2823.08 765.302 2826.22 771.723C2829.39 778.106 2830.98 785.356 2830.98 793.474C2830.98 801.702 2829.32 809.063 2826 815.557C2822.68 822.051 2817.97 826.977 2811.88 830.335C2805.8 833.655 2799.23 835.316 2792.18 835.316C2784.54 835.316 2777.72 833.471 2771.7 829.781C2765.69 826.091 2761.13 821.055 2758.03 814.672C2754.93 808.288 2753.38 801.536 2753.38 794.415ZM2764.45 794.581C2764.45 804.359 2767.07 812.07 2772.31 817.716C2777.59 823.324 2784.19 826.128 2792.13 826.128C2800.21 826.128 2806.85 823.287 2812.05 817.605C2817.29 811.923 2819.91 803.86 2819.91 793.418C2819.91 786.814 2818.78 781.058 2816.53 776.15C2814.32 771.206 2811.05 767.387 2806.74 764.694C2802.46 761.963 2797.64 760.598 2792.29 760.598C2784.69 760.598 2778.14 763.218 2772.64 768.457C2767.18 773.66 2764.45 782.368 2764.45 794.581ZM2869.7 833.932V752.794H2880.71L2923.33 816.498V752.794H2933.62V833.932H2922.61L2879.99 770.173V833.932H2869.7ZM2976.66 833.932V752.794H3004.61C3010.92 752.794 3015.73 753.181 3019.05 753.956C3023.7 755.026 3027.67 756.963 3030.95 759.768C3035.23 763.384 3038.43 768.014 3040.53 773.66C3042.67 779.268 3043.74 785.688 3043.74 792.92C3043.74 799.082 3043.02 804.543 3041.58 809.303C3040.14 814.063 3038.3 818.011 3036.05 821.147C3033.79 824.246 3031.32 826.7 3028.63 828.508C3025.97 830.279 3022.74 831.626 3018.94 832.548C3015.18 833.471 3010.84 833.932 3005.94 833.932H2976.66ZM2987.4 824.357H3004.72C3010.07 824.357 3014.26 823.859 3017.28 822.863C3020.35 821.867 3022.78 820.464 3024.59 818.656C3027.13 816.111 3029.11 812.697 3030.51 808.417C3031.95 804.1 3032.67 798.879 3032.67 792.754C3032.67 784.268 3031.27 777.755 3028.46 773.217C3025.7 768.642 3022.32 765.579 3018.33 764.029C3015.46 762.922 3010.83 762.369 3004.44 762.369H2987.4V824.357ZM3136.75 752.794H3147.49V799.673C3147.49 807.827 3146.57 814.303 3144.72 819.099C3142.88 823.896 3139.54 827.807 3134.7 830.833C3129.91 833.821 3123.6 835.316 3115.78 835.316C3108.17 835.316 3101.96 834.006 3097.12 831.386C3092.29 828.766 3088.84 824.984 3086.77 820.04C3084.71 815.059 3083.67 808.27 3083.67 799.673V752.794H3094.41V799.617C3094.41 806.665 3095.06 811.867 3096.35 815.225C3097.68 818.546 3099.93 821.11 3103.1 822.918C3106.31 824.726 3110.22 825.63 3114.83 825.63C3122.73 825.63 3128.36 823.841 3131.72 820.262C3135.07 816.682 3136.75 809.801 3136.75 799.617V752.794ZM3248.25 805.484L3258.99 808.196C3256.74 817.015 3252.68 823.748 3246.81 828.397C3240.98 833.01 3233.84 835.316 3225.39 835.316C3216.65 835.316 3209.53 833.545 3204.03 830.003C3198.57 826.423 3194.4 821.258 3191.52 814.505C3188.68 807.753 3187.26 800.503 3187.26 792.754C3187.26 784.305 3188.86 776.944 3192.07 770.671C3195.32 764.361 3199.91 759.583 3205.86 756.336C3211.83 753.052 3218.4 751.41 3225.56 751.41C3233.68 751.41 3240.5 753.477 3246.04 757.609C3251.57 761.742 3255.43 767.553 3257.6 775.043L3247.03 777.534C3245.15 771.63 3242.42 767.332 3238.84 764.638C3235.26 761.945 3230.76 760.598 3225.34 760.598C3219.1 760.598 3213.88 762.092 3209.67 765.081C3205.5 768.07 3202.57 772.092 3200.87 777.147C3199.18 782.165 3198.33 787.349 3198.33 792.699C3198.33 799.599 3199.32 805.632 3201.32 810.797C3203.35 815.926 3206.48 819.763 3210.73 822.309C3214.97 824.855 3219.56 826.128 3224.51 826.128C3230.52 826.128 3235.61 824.394 3239.78 820.926C3243.95 817.457 3246.77 812.31 3248.25 805.484ZM3297.43 833.932V752.794H3356.1V762.369H3308.17V787.22H3353.05V796.739H3308.17V824.357H3357.98V833.932H3297.43ZM3399.3 833.932V822.586H3410.64V833.932H3399.3Z" fill="#111111"/>
</svg>
